<?xml version="1.0" encoding="utf-8"?>
<!-- Generator: Adobe Illustrator 26.0.0, SVG Export Plug-In . SVG Version: 6.00 Build 0)  -->
<svg version="1.1" id="Layer_1" xmlns="http://www.w3.org/2000/svg" xmlns:xlink="http://www.w3.org/1999/xlink" x="0px" y="0px"
	 viewBox="0 0 231 47" style="enable-background:new 0 0 231 47;" xml:space="preserve">
<style type="text/css">
	.st0{fill:#2CA7BF;}
	.st1{fill:#F26522;}
	.st2{fill:url(#SVGID_1_);}
	.st3{fill:#D1D3D4;}
</style>
<g>
	<g>
		<path class="st0" d="M67.8,5.8L53.3,2.7c-0.4-0.1-0.7-0.1-1.1-0.1c-0.4,0-0.7,0-1.1,0.1L36.6,5.8c-0.2,0-0.3,0.2-0.3,0.4
			c0,0.2,0.1,0.3,0.3,0.4l14.5,3.1c0.7,0.2,1.5,0.2,2.2,0l4.7-1L52.2,6c-0.1-0.1-0.2-0.2-0.1-0.3c0.1-0.1,0.2-0.2,0.3-0.1l6.4,3
			l9-1.9c0.2,0,0.3-0.2,0.3-0.4C68.1,6,68,5.8,67.8,5.8z"/>
		<path class="st0" d="M59.2,9.1v2c0.5,0.9,0.9,2.1,1,3.4c-0.4,0.2-0.8,0.3-1.3,0.3c-0.4,0-0.9-0.1-1.3-0.3c0.1-1.3,0.5-2.5,1-3.4
			V9.2l-5.3,1.1c-0.4,0.1-0.8,0.1-1.2,0.1s-0.8,0-1.2-0.1l-8.6-1.8v5.9c0,1.4,4.2,3.6,9.9,3.6c5.6,0,9.9-2.2,9.9-3.6V8.5L59.2,9.1z"
			/>
		<path class="st1" d="M29.5,34.1l2.1,0.4c0.9,0.2,1.9-0.3,2.3-1.1c0.3,0.7,0.6,1.5,0.9,2.2h-1.5c-1.1,0-1.9,0.9-1.9,1.9h1.9
			c0.8,0,1.5-0.5,1.8-1.2c0.1,0.3,0.3,0.5,0.4,0.8c0.3,0.4,0.5,0.8,0.8,1.3c0.5,0,1-0.1,1.6-0.2c-2.9-3.5-4.4-7.8-4.2-12.4
			c0.1-2.8,0.9-5.5,2.2-7.9c0.6-1.1,1.3-2.2,2.2-3.2c0.2-0.2,0.9-0.9,1-1l-0.2-0.2c-0.4,0.4-0.8,0.8-1.2,1.2L37.4,13
			c-0.2-0.9-1-1.4-1.9-1.3l0.3,1.6c0.2,0.8,0.9,1.3,1.6,1.3c-0.6,0.7-1.1,1.3-1.5,2L35.3,15c-0.4-1-1.5-1.4-2.5-1l0.7,1.8
			c0.4,0.9,1.3,1.3,2.2,1.1c-0.5,0.8-0.9,1.5-1.2,2.3l-1-1.5c-0.6-1-1.9-1.2-2.9-0.6l1.2,1.8c0.6,0.8,1.6,1.1,2.5,0.8
			c-0.3,0.8-0.6,1.7-0.8,2.6L32.2,21c-0.9-0.9-2.3-0.9-3.2,0l1.6,1.6c0.8,0.8,1.9,0.9,2.8,0.3c-0.2,0.9-0.3,1.9-0.4,2.8l-1.7-1.1
			c-1.1-0.8-2.7-0.5-3.4,0.7l2.1,1.4c0.9,0.6,2.1,0.5,3-0.2c0,0.6,0,1.2,0,1.7c0,0.3,0.1,0.7,0.1,1l-1.7-0.7c-1.2-0.5-2.5,0.1-3,1.2
			l2.2,0.9c1,0.4,2,0.1,2.7-0.7c0.1,0.8,0.3,1.7,0.6,2.5l-1.9,0C30.8,32.2,29.7,32.9,29.5,34.1z"/>
		
			<linearGradient id="SVGID_1_" gradientUnits="userSpaceOnUse" x1="45.1157" y1="9.3093" x2="59.4484" y2="34.1343" gradientTransform="matrix(1 0 0 -1 0 48)">
			<stop  offset="0.15" style="stop-color:#00387A"/>
			<stop  offset="0.85" style="stop-color:#16BECF"/>
		</linearGradient>
		<path class="st2" d="M42.6,36.1c-0.8-0.8-1.6-1.8-2.2-2.8c1.1-0.4,2.3-0.8,3.5-1.2c0.3,1,0.6,1.9,1,2.8c0.3-0.1,0.7-0.3,1-0.4
			c-0.4-0.9-0.7-1.8-1-2.7c1.3-0.3,2.7-0.6,4.1-0.7c0.1,1.1,0.2,2.1,0.4,3.1c0.4,0.1,0.8,0.1,1.1,0.3c-0.2-1.1-0.3-2.3-0.4-3.5
			c0.7-0.1,1.5-0.1,2.2-0.1s1.5,0,2.2,0.1c-0.1,1.2-0.2,2.4-0.4,3.5c0.3-0.1,0.7-0.2,1.1-0.3c0.1-1,0.3-2.1,0.4-3.1
			c1.4,0.2,2.8,0.4,4.1,0.7c-0.3,0.9-0.6,1.8-1,2.7c0.3,0.1,0.7,0.2,1,0.4c0.4-0.9,0.7-1.8,1-2.8c1.2,0.3,2.4,0.7,3.5,1.2
			c-0.6,1-1.3,2-2.2,2.8c0.3,0.2,0.7,0.4,1,0.5c2.6-2.7,4.1-6.3,4.1-10.3c0-4.3-1.8-8.1-4.7-10.8c-0.2,0.3-0.4,0.5-0.8,0.8
			c0.9,0.9,1.8,1.9,2.4,3c-1.1,0.4-2.3,0.8-3.5,1.2c-0.3-1-0.7-2-1.1-3c-0.3,0.1-0.7,0.3-1,0.4c0.4,0.9,0.8,1.9,1.1,2.9
			c-1.3,0.3-2.6,0.6-4,0.7c-0.1-1-0.2-1.9-0.3-2.8c-0.3,0-0.7,0.1-1.1,0.1c0.1,0.9,0.2,1.8,0.3,2.8c-0.7,0.1-1.5,0.1-2.2,0.1
			s-1.5,0-2.2-0.1c0.1-1,0.2-1.9,0.3-2.8c-0.4,0-0.7-0.1-1.1-0.1c-0.1,0.9-0.2,1.8-0.3,2.8c-1.4-0.2-2.7-0.4-4-0.7
			c0.3-1,0.7-1.9,1.1-2.8c-0.4-0.1-0.7-0.2-1-0.4c-0.4,0.9-0.8,1.9-1.1,2.9c-1.2-0.3-2.4-0.7-3.5-1.2c0.6-1.1,1.4-2,2.3-2.9
			c-0.3-0.2-0.6-0.5-0.8-0.7c-2.8,2.7-4.6,6.5-4.6,10.7c0,4,1.6,7.6,4.1,10.3C41.9,36.5,42.2,36.3,42.6,36.1z M64.7,32.4
			c-1.2-0.5-2.4-0.9-3.7-1.3c0.3-1.3,0.5-2.7,0.6-4.2h4.5C66,28.9,65.5,30.7,64.7,32.4z M64.6,20.3c0.8,1.7,1.3,3.6,1.4,5.6h-4.5
			c0-1.5-0.3-3-0.6-4.3C62.2,21.2,63.5,20.8,64.6,20.3z M59.9,30.8c-1.4-0.3-2.8-0.6-4.3-0.8c0.1-1,0.1-2,0.1-3.1h4.7
			C60.4,28.3,60.2,29.6,59.9,30.8z M59.9,21.8c0.3,1.3,0.6,2.7,0.6,4.1h-4.7c0-1.1-0.1-2.2-0.1-3.3C57.1,22.4,58.5,22.1,59.9,21.8z
			 M50,22.7c0.8,0.1,1.5,0.1,2.3,0.1s1.5,0,2.3-0.1c0.1,1,0.1,2.1,0.1,3.2h-4.8C49.9,24.8,49.9,23.7,50,22.7z M54.7,26.9
			c0,1-0.1,2-0.1,3c-0.8-0.1-1.5-0.1-2.3-0.1s-1.5,0-2.3,0.1c-0.1-1-0.1-2-0.1-3H54.7z M44.7,30.8c-0.3-1.2-0.5-2.5-0.6-3.9h4.7
			c0,1.1,0.1,2.1,0.1,3.1C47.5,30.2,46,30.5,44.7,30.8z M44.7,21.8c1.4,0.3,2.8,0.6,4.2,0.8c-0.1,1.1-0.1,2.2-0.1,3.3h-4.7
			C44.2,24.5,44.4,23.1,44.7,21.8z M40,20.3c1.2,0.5,2.4,0.9,3.7,1.2c-0.4,1.4-0.6,2.8-0.6,4.3h-4.5C38.6,23.9,39.1,22,40,20.3z
			 M38.6,26.9h4.5c0,1.4,0.3,2.8,0.6,4.2c-1.3,0.4-2.6,0.8-3.7,1.3C39.1,30.7,38.6,28.9,38.6,26.9z"/>
		<path class="st1" d="M74.2,31l2.2-0.9c-0.5-1.2-1.8-1.7-3-1.2l-1.7,0.7c0-0.3,0.1-0.7,0.1-1c0-0.6,0.1-1.2,0-1.7
			c0.8,0.7,2,0.8,3,0.2l2.1-1.4c-0.8-1.1-2.3-1.4-3.4-0.7l-1.8,1c-0.1-0.9-0.2-1.9-0.4-2.8c0.9,0.5,2,0.4,2.8-0.3l1.6-1.6
			c-0.9-0.9-2.3-0.9-3.2,0l-1.3,1.3c-0.2-0.9-0.5-1.8-0.8-2.6c0.9,0.3,1.9,0,2.5-0.8l1.2-1.8c-1-0.6-2.3-0.4-2.9,0.6l-1,1.5
			c-0.4-0.8-0.8-1.6-1.2-2.3c0.9,0.2,1.8-0.3,2.2-1.1l0.7-1.8c-1-0.4-2.1,0.1-2.5,1l-0.6,1.6c-0.5-0.7-1-1.4-1.5-2
			c0.8,0,1.5-0.5,1.6-1.3l0.3-1.6c-0.9-0.2-1.7,0.4-1.9,1.3L67,14.4c-0.4-0.4-0.8-0.8-1.2-1.2l-0.2,0.2c0.1,0.1,0.8,0.8,1,1
			c0.8,1,1.6,2.1,2.2,3.2c1.3,2.4,2,5.1,2.2,7.9c0.2,4.6-1.4,8.9-4.2,12.4c0.6,0.1,1.2,0.2,1.6,0.2c0.3-0.4,0.6-0.8,0.8-1.3
			c0.2-0.3,0.3-0.5,0.4-0.8c0.3,0.7,1,1.2,1.8,1.2h1.9c0-1.1-0.9-1.9-1.9-1.9h-1.5c0.3-0.7,0.6-1.4,0.9-2.2c0.4,0.8,1.3,1.3,2.3,1.1
			l2.1-0.4c-0.2-1.1-1.3-1.9-2.5-1.6L71,32.5c0.2-0.8,0.4-1.6,0.6-2.5C72.1,31,73.2,31.3,74.2,31z"/>
		<path class="st3" d="M33.3,42.2c0.6,0.1,1.3,0.1,2,0.1c1.8,0,3.7-0.3,5.3-0.9c1.2-0.4,2.4-1,3.6-1.7c0.1,0,0.1-0.1,0.2-0.1
			c0.7-0.4,1.9-1.1,3.3-1.1c0.3,0,0.5,0,0.7,0.1c0.7,0.1,2.2,0.8,3,2.5H53c0.8-1.7,2.3-2.4,3-2.5c0.2,0,0.5-0.1,0.7-0.1
			c1.4,0,2.6,0.7,3.3,1.1c0.1,0.1,0.2,0.1,0.2,0.1c1.2,0.7,2.4,1.3,3.6,1.7c2.1,0.7,4.1,0.9,5.3,0.9c0.7,0,1.4,0,2-0.1
			c0.4-0.1,0.8-0.1,1.2-0.2l-2-2.6c0,0-4.3,0.8-9.3-2.3c-5.1-3.1-7.9-1.1-8.9,0c-1.1-1.1-3.9-3.1-8.9,0s-9.3,2.3-9.3,2.3l-2,2.6
			C32.5,42,32.9,42.1,33.3,42.2z"/>
		<path class="st1" d="M56.8,39.1c1.5,0,2.8,0.9,3.3,1.2c1.1,0.7,2.4,1.3,3.7,1.7c1.8,0.6,3.8,0.9,5.4,0.9c0.7,0,1.4-0.1,2.1-0.1
			c1.9-0.3,3.4-0.8,3.4-0.8l0.2,0.5c0,0-1.3,0.7-3.4,1.2c-1.1,0.3-2.4,0.4-3.8,0.4c-1.3,0-2.7-0.1-4.1-0.5c-1.4-0.3-2.8-0.8-4.1-1.5
			c-0.2-0.1-1-0.5-1.7-0.7c-0.3-0.1-0.6-0.1-0.8-0.1s-0.4,0-0.5,0.1c-0.7,0.2-1,0.8-1.2,1.3l0.3,1c0.1,0.4-0.1,0.8-0.5,0.8h-5.5
			c-0.4,0-0.6-0.4-0.5-0.8l0.3-1c-0.2-0.5-0.5-1.1-1.2-1.3c-0.2,0-0.3-0.1-0.5-0.1s-0.5,0-0.8,0.1c-0.7,0.2-1.5,0.6-1.7,0.7
			c-1.3,0.6-2.7,1.1-4.1,1.5c-1.4,0.3-2.8,0.5-4.1,0.5c-1.4,0-2.7-0.2-3.8-0.4c-2.1-0.5-3.4-1.2-3.4-1.2L30,42c0,0,1.5,0.5,3.4,0.8
			c0.6,0.1,1.3,0.1,2.1,0.1c1.7,0,3.6-0.3,5.4-0.9c1.3-0.4,2.6-1,3.7-1.7c0.5-0.3,1.8-1.2,3.3-1.2c0.2,0,0.4,0,0.7,0.1
			c0.6,0.1,2.1,0.7,2.8,2.5h2.2c0.7-1.8,2.2-2.4,2.8-2.5C56.4,39.1,56.6,39.1,56.8,39.1z"/>
	</g>
	<g>
		<path class="st3" d="M95.6,13.4h-8.7V19h9v1.4H85.2V5.1h10.7v1.5h-9v5.2h8.7C95.6,11.8,95.6,13.4,95.6,13.4z"/>
		<path class="st3" d="M103.3,5.1c4.3,0,7.7,3.4,7.7,7.7c0,4.2-3.4,7.7-7.7,7.7h-4.8V5.1H103.3z M103.1,18.9c3.5,0,6.3-2.8,6.3-6.1
			c0-3.4-2.8-6.2-6.3-6.2h-2.9v12.3H103.1z"/>
		<path class="st3" d="M125.2,15.1c0,3.4-2.8,5.4-5.9,5.4s-5.9-2-5.9-5.4v-10h1.7v10.1c0,2.5,2,3.8,4.2,3.8c2.3,0,4.2-1.4,4.2-3.8
			V5.1h1.7L125.2,15.1L125.2,15.1z"/>
		<path class="st3" d="M139.7,19.6c-1.2,0.7-2.5,1-3.9,1c-4.4,0-8-3.5-8-7.9s3.6-7.9,8-7.9c1.4,0,2.7,0.3,3.9,1v1.7
			c-1.2-0.8-2.6-1.1-3.9-1.1c-3.5,0-6.3,2.8-6.3,6.3s2.8,6.3,6.3,6.3c1.3,0,2.7-0.4,3.9-1.1V19.6z"/>
		<path class="st3" d="M152.1,16.5h-6.9l-1.5,3.9h-1.8l6-15.3h1.7l6,15.3h-1.8L152.1,16.5z M148.6,7.4l-3,7.8h6L148.6,7.4z"/>
		<path class="st3" d="M166,6.6h-4.5v13.8h-1.7V6.6h-4.5V5.1H166V6.6z"/>
		<path class="st3" d="M168.5,20.4V5.1h1.7v15.3H168.5z"/>
		<path class="st3" d="M188.8,12.7c0,4.3-3.6,7.9-8,7.9c-4.5,0-8-3.5-8-7.9s3.6-7.9,8-7.9C185.3,4.8,188.8,8.4,188.8,12.7z
			 M174.5,12.7c0,3.4,2.8,6.3,6.3,6.3c3.4,0,6.3-2.8,6.3-6.3s-2.8-6.3-6.3-6.3C177.4,6.5,174.5,9.3,174.5,12.7z"/>
		<path class="st3" d="M201.5,5.1h1.7v15.3h-1.3l-8.7-12.3v12.3h-1.7V5.1h1.3l8.7,12.3V5.1z"/>
		<path class="st3" d="M91.1,37.7h-4.3l0.1-0.5h4.3L91.1,37.7z"/>
		<path class="st3" d="M98.3,39.6c1.1,1.1,2.8,1.7,4.3,1.7c1.6,0,3.5-0.8,3.5-2.6c0-1-0.7-1.5-1.7-1.9c-2.3-0.9-6.2-0.7-6.2-3.6
			c0-2.3,2.2-3.4,4.2-3.4c1.4,0,2.9,0.5,4,1.5v1c-1-1.1-2.6-1.6-4-1.6c-1.6,0-3.3,0.8-3.3,2.6c0,1.4,1.4,1.8,3,2.1
			c2.2,0.5,4.9,0.9,4.9,3.3c0,2.4-2.3,3.4-4.4,3.4c-1.5,0-3.1-0.5-4.3-1.5V39.6z"/>
		<path class="st3" d="M116.8,30.8h-3.7V42h-0.9V30.8h-3.6V30h8.2V30.8z"/>
		<path class="st3" d="M127.9,38c0,2.6-2.1,4.1-4.5,4.1s-4.5-1.5-4.5-4.1v-8h0.9v8c0,2.1,1.7,3.2,3.6,3.2S127,40,127,38v-8h0.9V38z"
			/>
		<path class="st3" d="M134,30c3.3,0,6.1,2.7,6.1,6s-2.7,6-6.1,6h-3.5V30H134z M133.9,41.1c2.9,0,5.3-2.3,5.3-5.1
			c0-2.9-2.4-5.2-5.3-5.2h-2.5v10.3H133.9z"/>
		<path class="st3" d="M141.9,30l3.6,7.4L149,30h1l-4.2,8.4V42h-0.9v-3.6l-4.1-8.4C140.8,30,141.9,30,141.9,30z"/>
		<path class="st3" d="M164.8,42H157V30h0.9v11.2h6.9L164.8,42L164.8,42z"/>
		<path class="st3" d="M166.8,42V30h0.9v12H166.8z"/>
		<path class="st3" d="M178.3,30h0.9v12h-0.8l-7.3-10.4V42h-0.9V30h0.8l7.3,10.4V30z"/>
		<path class="st3" d="M189.2,30h1.2l-4.5,4.6l4.9,7.4h-1.1l-4.4-6.7l-2.6,2.6V42h-0.9V30h0.9v6.6L189.2,30z"/>
		<path class="st3" d="M203.1,37.7h-4.3l0.1-0.5h4.3L203.1,37.7z"/>
	</g>
</g>
</svg>
