<?xml version="1.0" encoding="utf-8"?>
<!-- Generator: Adobe Illustrator 26.0.0, SVG Export Plug-In . SVG Version: 6.00 Build 0)  -->
<svg version="1.1" id="Layer_1" xmlns="http://www.w3.org/2000/svg" xmlns:xlink="http://www.w3.org/1999/xlink" x="0px" y="0px"
	 viewBox="0 0 231 47" style="enable-background:new 0 0 231 47;" xml:space="preserve">
<style type="text/css">
	.st0{fill:#2CA7BF;}
	.st1{fill:#F26522;}
	.st2{fill:url(#SVGID_1_);}
	.st3{fill:#D1D3D4;}
	.st4{fill:#FFFFEA;}
</style>
<g>
	<path class="st0" d="M39.6,3.7L25.1,0.6c-0.4-0.1-0.7-0.1-1.1-0.1c-0.4,0-0.7,0-1.1,0.1L8.4,3.7c-0.2,0-0.3,0.2-0.3,0.4
		c0,0.2,0.1,0.3,0.3,0.4l14.5,3.1c0.7,0.2,1.5,0.2,2.2,0l4.7-1L24,3.9c-0.1-0.1-0.2-0.2-0.1-0.3c0.1-0.1,0.2-0.2,0.3-0.1l6.4,3
		l9-1.9c0.2,0,0.3-0.2,0.3-0.4C39.9,3.9,39.8,3.7,39.6,3.7z"/>
	<path class="st0" d="M31,7v2c0.5,0.9,0.9,2.1,1,3.4c-0.4,0.2-0.8,0.3-1.3,0.3c-0.4,0-0.9-0.1-1.3-0.3c0.1-1.3,0.5-2.5,1-3.4V7.1
		l-5.3,1.1c-0.4,0.1-0.8,0.1-1.2,0.1s-0.8,0-1.2-0.1l-8.6-1.8v5.9c0,1.4,4.2,3.6,9.9,3.6c5.6,0,9.9-2.2,9.9-3.6V6.4L31,7z"/>
	<path class="st1" d="M1.3,32l2.1,0.4c0.9,0.2,1.9-0.3,2.3-1.1C6,32,6.3,32.8,6.6,33.5H5.1c-1.1,0-1.9,0.9-1.9,1.9h1.9
		c0.8,0,1.5-0.5,1.8-1.2C7,34.5,7.2,34.8,7.3,35c0.3,0.4,0.5,0.8,0.8,1.3c0.5,0,1-0.1,1.6-0.2c-2.9-3.5-4.4-7.8-4.2-12.4
		c0.1-2.8,0.9-5.5,2.2-7.9c0.6-1.1,1.3-2.2,2.2-3.2c0.2-0.2,0.9-0.9,1-1l-0.2-0.2c-0.4,0.4-0.8,0.8-1.2,1.2l-0.3-1.7
		C9,10,8.2,9.5,7.3,9.6l0.3,1.6c0.2,0.8,0.9,1.3,1.6,1.3c-0.6,0.7-1.1,1.3-1.5,2l-0.6-1.6c-0.4-1-1.5-1.4-2.5-1l0.7,1.8
		c0.4,0.9,1.3,1.3,2.2,1.1c-0.5,0.8-0.9,1.5-1.2,2.3l-1-1.5c-0.6-1-1.9-1.2-2.9-0.6l1.2,1.8c0.6,0.8,1.6,1.1,2.5,0.8
		c-0.3,0.8-0.6,1.7-0.8,2.6L4,18.9c-0.9-0.9-2.3-0.9-3.2,0l1.6,1.6c0.8,0.8,1.9,0.9,2.8,0.3c-0.2,0.9-0.3,1.9-0.4,2.8l-1.7-1.1
		C2,21.7,0.4,22-0.3,23.2l2.1,1.4c0.9,0.6,2.1,0.5,3-0.2c0,0.6,0,1.2,0,1.7c0,0.3,0.1,0.7,0.1,1l-1.7-0.7c-1.2-0.5-2.5,0.1-3,1.2
		l2.2,0.9c1,0.4,2,0.1,2.7-0.7c0.1,0.8,0.3,1.7,0.6,2.5H3.8C2.6,30.1,1.5,30.9,1.3,32z"/>
	
		<linearGradient id="SVGID_1_" gradientUnits="userSpaceOnUse" x1="16.9156" y1="2148.6406" x2="31.2483" y2="2123.8157" gradientTransform="matrix(1 0 0 1 0 -2112)">
		<stop  offset="0.15" style="stop-color:#00387A"/>
		<stop  offset="0.85" style="stop-color:#16BECF"/>
	</linearGradient>
	<path class="st2" d="M14.4,34c-0.8-0.8-1.6-1.8-2.2-2.8c1.1-0.4,2.3-0.8,3.5-1.2c0.3,1,0.6,1.9,1,2.8c0.3-0.1,0.7-0.3,1-0.4
		c-0.4-0.9-0.7-1.8-1-2.7c1.3-0.3,2.7-0.6,4.1-0.7c0.1,1.1,0.2,2.1,0.4,3.1c0.4,0.1,0.8,0.1,1.1,0.3c-0.2-1.1-0.3-2.3-0.4-3.5
		c0.7-0.1,1.5-0.1,2.2-0.1s1.5,0,2.2,0.1c-0.1,1.2-0.2,2.4-0.4,3.5c0.3-0.1,0.7-0.2,1.1-0.3c0.1-1,0.3-2.1,0.4-3.1
		c1.4,0.2,2.8,0.4,4.1,0.7c-0.3,0.9-0.6,1.8-1,2.7c0.3,0.1,0.7,0.2,1,0.4c0.4-0.9,0.7-1.8,1-2.8c1.2,0.3,2.4,0.7,3.5,1.2
		c-0.6,1-1.3,2-2.2,2.8c0.3,0.2,0.7,0.4,1,0.5c2.6-2.7,4.1-6.3,4.1-10.3c0-4.3-1.8-8.1-4.7-10.8c-0.2,0.3-0.4,0.5-0.8,0.8
		c0.9,0.9,1.8,1.9,2.4,3c-1.1,0.4-2.3,0.8-3.5,1.2c-0.3-1-0.7-2-1.1-3c-0.3,0.1-0.7,0.3-1,0.4c0.4,0.9,0.8,1.9,1.1,2.9
		c-1.3,0.3-2.6,0.6-4,0.7c-0.1-1-0.2-1.9-0.3-2.8c-0.3,0-0.7,0.1-1.1,0.1c0.1,0.9,0.2,1.8,0.3,2.8c-0.7,0.1-1.5,0.1-2.2,0.1
		s-1.5,0-2.2-0.1c0.1-1,0.2-1.9,0.3-2.8c-0.4,0-0.7-0.1-1.1-0.1c-0.1,0.9-0.2,1.8-0.3,2.8c-1.4-0.2-2.7-0.4-4-0.7
		c0.3-1,0.7-1.9,1.1-2.8c-0.4-0.1-0.7-0.2-1-0.4c-0.4,0.9-0.8,1.9-1.1,2.9c-1.2-0.3-2.4-0.7-3.5-1.2c0.6-1.1,1.4-2,2.3-2.9
		c-0.3-0.2-0.6-0.5-0.8-0.7c-2.8,2.7-4.6,6.5-4.6,10.7c0,4,1.6,7.6,4.1,10.3C13.7,34.4,14,34.2,14.4,34z M36.5,30.4
		c-1.2-0.5-2.4-0.9-3.7-1.3c0.3-1.3,0.5-2.7,0.6-4.2h4.5C37.8,26.8,37.3,28.6,36.5,30.4z M36.4,18.2c0.8,1.7,1.3,3.6,1.4,5.6h-4.5
		c0-1.5-0.3-3-0.6-4.3C34,19.1,35.3,18.7,36.4,18.2z M31.7,28.7c-1.4-0.3-2.8-0.6-4.3-0.8c0.1-1,0.1-2,0.1-3.1h4.7
		C32.2,26.2,32,27.5,31.7,28.7z M31.7,19.7c0.3,1.3,0.6,2.7,0.6,4.1h-4.7c0-1.1-0.1-2.2-0.1-3.3C28.9,20.3,30.3,20,31.7,19.7z
		 M21.8,20.6c0.8,0.1,1.5,0.1,2.3,0.1s1.5,0,2.3-0.1c0.1,1,0.1,2.1,0.1,3.2h-4.8C21.7,22.7,21.7,21.6,21.8,20.6z M26.5,24.8
		c0,1-0.1,2-0.1,3c-0.8-0.1-1.5-0.1-2.3-0.1s-1.5,0-2.3,0.1c-0.1-1-0.1-2-0.1-3H26.5z M16.5,28.7c-0.3-1.2-0.5-2.5-0.6-3.9h4.7
		c0,1.1,0.1,2.1,0.1,3.1C19.3,28.1,17.8,28.4,16.5,28.7z M16.5,19.7c1.4,0.3,2.8,0.6,4.2,0.8c-0.1,1.1-0.1,2.2-0.1,3.3h-4.7
		C16,22.4,16.2,21,16.5,19.7z M11.8,18.2c1.2,0.5,2.4,0.9,3.7,1.2c-0.4,1.4-0.6,2.8-0.6,4.3h-4.5C10.4,21.8,10.9,19.9,11.8,18.2z
		 M10.4,24.8h4.5c0,1.4,0.3,2.8,0.6,4.2c-1.3,0.4-2.6,0.8-3.7,1.3C10.9,28.6,10.4,26.8,10.4,24.8z"/>
	<path class="st1" d="M46,28.9l2.2-0.9c-0.5-1.2-1.8-1.7-3-1.2l-1.7,0.7c0-0.3,0.1-0.7,0.1-1c0-0.6,0.1-1.2,0-1.7
		c0.8,0.7,2,0.8,3,0.2l2.1-1.4c-0.8-1.1-2.3-1.4-3.4-0.7l-1.8,1c-0.1-0.9-0.2-1.9-0.4-2.8c0.9,0.5,2,0.4,2.8-0.3l1.6-1.6
		c-0.9-0.9-2.3-0.9-3.2,0L43,20.5c-0.2-0.9-0.5-1.8-0.8-2.6c0.9,0.3,1.9,0,2.5-0.8l1.2-1.8c-1-0.6-2.3-0.4-2.9,0.6l-1,1.5
		c-0.4-0.8-0.8-1.6-1.2-2.3c0.9,0.2,1.8-0.3,2.2-1.1l0.7-1.8c-1-0.4-2.1,0.1-2.5,1l-0.6,1.6c-0.5-0.7-1-1.4-1.5-2
		c0.8,0,1.5-0.5,1.6-1.3L41,9.9c-0.9-0.2-1.7,0.4-1.9,1.3l-0.3,1.1c-0.4-0.4-0.8-0.8-1.2-1.2l-0.2,0.2c0.1,0.1,0.8,0.8,1,1
		c0.8,1,1.6,2.1,2.2,3.2c1.3,2.4,2,5.1,2.2,7.9c0.2,4.6-1.4,8.9-4.2,12.4c0.6,0.1,1.2,0.2,1.6,0.2c0.3-0.4,0.6-0.8,0.8-1.3
		c0.2-0.3,0.3-0.5,0.4-0.8c0.3,0.7,1,1.2,1.8,1.2h1.9c0-1.1-0.9-1.9-1.9-1.9h-1.5c0.3-0.7,0.6-1.4,0.9-2.2c0.4,0.8,1.3,1.3,2.3,1.1
		l2.1-0.4c-0.2-1.1-1.3-1.9-2.5-1.6l-1.7,0.3c0.2-0.8,0.4-1.6,0.6-2.5C43.9,28.9,45,29.2,46,28.9z"/>
	<path class="st3" d="M5.1,40.1c0.6,0.1,1.3,0.1,2,0.1c1.8,0,3.7-0.3,5.3-0.9c1.2-0.4,2.4-1,3.6-1.7c0.1,0,0.1-0.1,0.2-0.1
		c0.7-0.4,1.9-1.1,3.3-1.1c0.3,0,0.5,0,0.7,0.1c0.7,0.1,2.2,0.8,3,2.5h1.6c0.8-1.7,2.3-2.4,3-2.5c0.2,0,0.5-0.1,0.7-0.1
		c1.4,0,2.6,0.7,3.3,1.1c0.1,0.1,0.2,0.1,0.2,0.1c1.2,0.7,2.4,1.3,3.6,1.7c2.1,0.7,4.1,0.9,5.3,0.9c0.7,0,1.4,0,2-0.1
		c0.4-0.1,0.8-0.1,1.2-0.2l-2-2.6c0,0-4.3,0.8-9.3-2.3c-5.1-3.1-7.9-1.1-8.9,0C22.8,34,20,32,15,35s-9.3,2.3-9.3,2.3l-2,2.6
		C4.3,39.9,4.7,40,5.1,40.1z"/>
	<path class="st1" d="M28.6,37c1.5,0,2.8,0.9,3.3,1.2c1.1,0.7,2.4,1.3,3.7,1.7c1.8,0.6,3.8,0.9,5.4,0.9c0.7,0,1.4-0.1,2.1-0.1
		c1.9-0.3,3.4-0.8,3.4-0.8l0.2,0.5c0,0-1.3,0.7-3.4,1.2c-1.1,0.3-2.4,0.4-3.8,0.4c-1.3,0-2.7-0.1-4.1-0.5c-1.4-0.3-2.8-0.8-4.1-1.5
		c-0.2-0.1-1-0.5-1.7-0.7c-0.3-0.1-0.6-0.1-0.8-0.1s-0.4,0-0.5,0.1c-0.7,0.2-1,0.8-1.2,1.3l0.3,1c0.1,0.4-0.1,0.8-0.5,0.8h-5.5
		c-0.4,0-0.6-0.4-0.5-0.8l0.3-1c-0.2-0.5-0.5-1.1-1.2-1.3c-0.2,0-0.3-0.1-0.5-0.1s-0.5,0-0.8,0.1C18,39.6,17.2,40,17,40.1
		c-1.3,0.6-2.7,1.1-4.1,1.5c-1.4,0.3-2.8,0.5-4.1,0.5c-1.4,0-2.7-0.2-3.8-0.4c-2.1-0.5-3.4-1.2-3.4-1.2l0.2-0.5c0,0,1.5,0.5,3.4,0.8
		c0.6,0.1,1.3,0.1,2.1,0.1c1.7,0,3.6-0.3,5.4-0.9c1.3-0.4,2.6-1,3.7-1.7c0.5-0.3,1.8-1.2,3.3-1.2c0.2,0,0.4,0,0.7,0.1
		c0.6,0.1,2.1,0.7,2.8,2.5h2.2c0.7-1.8,2.2-2.4,2.8-2.5C28.2,37,28.4,37,28.6,37z"/>
</g>
<g>
	<g>
		<path class="st4" d="M71.7,22H59.8v6.6h12.3v3h-16V9.3h16v3.2H59.8v6.2h11.8V22z"/>
		<path class="st4" d="M83.6,9.3c6.1,0,11.1,5,11.1,11.2c0,6.2-5,11.2-11.1,11.2h-7.7V9.3H83.6z M83,28.4c4.5,0,8.1-3.6,8.1-8
			c0-4.4-3.6-8-8.1-8h-3.6v16H83z"/>
		<path class="st4" d="M115.6,23.6c0,5.2-4.2,8.3-8.8,8.3c-4.7,0-8.9-3.1-8.9-8.3V9.3h3.6v14.4c0,3.2,2.4,4.9,5.2,4.9
			c2.8,0,5.2-1.7,5.2-4.9V9.3h3.6V23.6z"/>
		<path class="st4" d="M136.7,30.4c-1.8,1-3.7,1.5-5.7,1.5c-6.6,0-11.9-5.1-11.9-11.5c0-6.4,5.3-11.5,11.9-11.5c2,0,3.9,0.5,5.7,1.5
			V14c-1.8-1.1-3.8-1.7-5.7-1.7c-4.6,0-8.3,3.7-8.3,8.1c0,4.5,3.7,8.1,8.3,8.1c1.9,0,3.9-0.6,5.7-1.7V30.4z"/>
		<path class="st4" d="M154,26.4h-8.7l-2,5.3h-3.9L148,9.3h3.5l8.4,22.4H156L154,26.4z M149.7,14.1l-3.5,9.4h6.9L149.7,14.1z"/>
		<path class="st4" d="M175.5,12.5h-6.3v19.2h-3.6V12.5h-6.3V9.3h16.1V12.5z"/>
		<path class="st4" d="M179,31.6V9.3h3.6v22.4H179z"/>
		<path class="st4" d="M209.7,20.5c0,6.3-5.2,11.5-11.7,11.5c-6.6,0-11.9-5.1-11.9-11.5c0-6.4,5.3-11.5,11.9-11.5
			C204.5,9,209.7,14.1,209.7,20.5z M189.8,20.5c0,4.5,3.7,8.1,8.3,8.1c4.5,0,8.1-3.6,8.1-8.1c0-4.5-3.6-8.1-8.1-8.1
			C193.5,12.4,189.8,16,189.8,20.5z"/>
		<path class="st4" d="M227.4,9.3h3.6v22.4h-2.8l-11.3-16v16h-3.6V9.3h2.8l11.3,15.9V9.3z"/>
	</g>
	<g>
		<path class="st4" d="M106.9,44.3h-3.2v-1h3.2V44.3z"/>
		<path class="st4" d="M112,44.5c0.8,0.8,2,1.2,2.9,1.2c0.8,0,1.7-0.3,1.7-1.2c0-0.5-0.5-0.8-1.2-1c-1.4-0.5-3.5-0.6-3.5-2.5
			c0-1.6,1.5-2.3,2.9-2.3c0.9,0,2,0.3,2.7,1v1.3c-0.7-0.8-1.8-1.1-2.7-1.1c-0.8,0-1.7,0.3-1.7,1.2c0,0.7,0.8,0.9,1.7,1.1
			c1.4,0.3,3,0.7,3,2.4c0,1.6-1.6,2.3-3,2.3c-1,0-2.1-0.3-2.9-1V44.5z"/>
		<path class="st4" d="M124.5,39.9h-2.2v6.8H121v-6.8h-2.2v-1.2h5.8V39.9z"/>
		<path class="st4" d="M132.1,43.9c0,1.9-1.5,3-3.1,3c-1.7,0-3.2-1.1-3.2-3v-5.1h1.3v5.1c0,1.2,0.9,1.8,1.9,1.8c1,0,1.9-0.6,1.9-1.8
			v-5.1h1.3V43.9z"/>
		<path class="st4" d="M136.4,38.7c2.2,0,4,1.8,4,4c0,2.2-1.8,4-4,4h-2.8v-8H136.4z M136.2,45.6c1.6,0,2.9-1.3,2.9-2.9
			c0-1.6-1.3-2.9-2.9-2.9h-1.3v5.7H136.2z"/>
		<path class="st4" d="M142.1,38.7l1.9,4.3l2-4.3h1.4l-2.8,5.6v2.4h-1.3v-2.3l-2.7-5.7H142.1z"/>
		<path class="st4" d="M157.3,46.7h-5.5v-8h1.3v6.9h4.2V46.7z"/>
		<path class="st4" d="M158.5,46.7v-8h1.3v8H158.5z"/>
		<path class="st4" d="M166.4,38.7h1.3v8h-1l-4-5.7v5.7h-1.3v-8h1l4,5.7V38.7z"/>
		<path class="st4" d="M173.8,38.7h1.7l-2.8,3.1l3.1,4.9h-1.5l-2.5-4l-1.3,1.3v2.7h-1.3v-8h1.3v3.6L173.8,38.7z"/>
		<path class="st4" d="M183.5,44.3h-3.2v-1h3.2V44.3z"/>
	</g>
</g>
</svg>
