<?xml version="1.0" encoding="utf-8"?>
<!-- Generator: Adobe Illustrator 26.0.0, SVG Export Plug-In . SVG Version: 6.00 Build 0)  -->
<svg version="1.1" id="Layer_1" xmlns="http://www.w3.org/2000/svg" xmlns:xlink="http://www.w3.org/1999/xlink" x="0px" y="0px"
	 viewBox="0 0 231 47" style="enable-background:new 0 0 231 47;" xml:space="preserve">
<style type="text/css">
	.st0{fill:#2CA7BF;}
	.st1{fill:#F26522;}
	.st2{fill:url(#SVGID_1_);}
	.st3{fill:#D1D3D4;}
	.st4{fill:#FFFFEA;}
</style>
<g>
	<path class="st0" d="M39.6,6.5L25.1,3.4c-0.4-0.1-0.7-0.1-1.1-0.1c-0.4,0-0.7,0-1.1,0.1L8.4,6.5c-0.2,0-0.3,0.2-0.3,0.4
		c0,0.2,0.1,0.3,0.3,0.4l14.5,3.1c0.7,0.2,1.5,0.2,2.2,0l4.7-1L24,6.7c-0.1-0.1-0.2-0.2-0.1-0.3c0.1-0.1,0.2-0.2,0.3-0.1l6.4,3
		l9-1.9c0.2,0,0.3-0.2,0.3-0.4C39.9,6.7,39.8,6.5,39.6,6.5z"/>
	<path class="st0" d="M31,9.8v2c0.5,0.9,0.9,2.1,1,3.4c-0.4,0.2-0.8,0.3-1.3,0.3c-0.4,0-0.9-0.1-1.3-0.3c0.1-1.3,0.5-2.5,1-3.4V9.9
		L25.1,11c-0.4,0.1-0.8,0.1-1.2,0.1s-0.8,0-1.2-0.1l-8.6-1.8v5.9c0,1.4,4.2,3.6,9.9,3.6c5.6,0,9.9-2.2,9.9-3.6V9.2L31,9.8z"/>
	<path class="st1" d="M1.3,34.8l2.1,0.4c0.9,0.2,1.9-0.3,2.3-1.1c0.3,0.7,0.6,1.5,0.9,2.2H5.1c-1.1,0-1.9,0.9-1.9,1.9h1.9
		c0.8,0,1.5-0.5,1.8-1.2c0.1,0.3,0.3,0.5,0.4,0.8c0.3,0.4,0.5,0.8,0.8,1.3c0.5,0,1-0.1,1.6-0.2c-2.9-3.5-4.4-7.8-4.2-12.4
		c0.1-2.8,0.9-5.5,2.2-7.9c0.6-1.1,1.3-2.2,2.2-3.2c0.2-0.2,0.9-0.9,1-1l-0.2-0.2c-0.4,0.4-0.8,0.8-1.2,1.2l-0.3-1.7
		c-0.2-0.9-1-1.4-1.9-1.3L7.6,14c0.2,0.8,0.9,1.3,1.6,1.3c-0.6,0.7-1.1,1.3-1.5,2l-0.6-1.6c-0.4-1-1.5-1.4-2.5-1l0.7,1.8
		c0.4,0.9,1.3,1.3,2.2,1.1c-0.5,0.8-0.9,1.5-1.2,2.3l-1-1.5c-0.6-1-1.9-1.2-2.9-0.6l1.2,1.8c0.6,0.8,1.6,1.1,2.5,0.8
		c-0.3,0.8-0.6,1.7-0.8,2.6L4,21.7c-0.9-0.9-2.3-0.9-3.2,0l1.6,1.6c0.8,0.8,1.9,0.9,2.8,0.3c-0.2,0.9-0.3,1.9-0.4,2.8l-1.7-1.1
		C2,24.5,0.4,24.8-0.3,26l2.1,1.4c0.9,0.6,2.1,0.5,3-0.2c0,0.6,0,1.2,0,1.7c0,0.3,0.1,0.7,0.1,1l-1.7-0.7c-1.2-0.5-2.5,0.1-3,1.2
		l2.2,0.9c1,0.4,2,0.1,2.7-0.7c0.1,0.8,0.3,1.7,0.6,2.5H3.8C2.6,32.9,1.5,33.6,1.3,34.8z"/>
	
		<linearGradient id="SVGID_1_" gradientUnits="userSpaceOnUse" x1="16.9156" y1="2151.3406" x2="31.2483" y2="2126.5156" gradientTransform="matrix(1 0 0 1 0 -2112)">
		<stop  offset="0.15" style="stop-color:#00387A"/>
		<stop  offset="0.85" style="stop-color:#16BECF"/>
	</linearGradient>
	<path class="st2" d="M14.4,36.8C13.6,36,12.8,35,12.2,34c1.1-0.4,2.3-0.8,3.5-1.2c0.3,1,0.6,1.9,1,2.8c0.3-0.1,0.7-0.3,1-0.4
		c-0.4-0.9-0.7-1.8-1-2.7c1.3-0.3,2.7-0.6,4.1-0.7c0.1,1.1,0.2,2.1,0.4,3.1c0.4,0.1,0.8,0.1,1.1,0.3c-0.2-1.1-0.3-2.3-0.4-3.5
		c0.7-0.1,1.5-0.1,2.2-0.1s1.5,0,2.2,0.1c-0.1,1.2-0.2,2.4-0.4,3.5c0.3-0.1,0.7-0.2,1.1-0.3c0.1-1,0.3-2.1,0.4-3.1
		c1.4,0.2,2.8,0.4,4.1,0.7c-0.3,0.9-0.6,1.8-1,2.7c0.3,0.1,0.7,0.2,1,0.4c0.4-0.9,0.7-1.8,1-2.8c1.2,0.3,2.4,0.7,3.5,1.2
		c-0.6,1-1.3,2-2.2,2.8c0.3,0.2,0.7,0.4,1,0.5c2.6-2.7,4.1-6.3,4.1-10.3c0-4.3-1.8-8.1-4.7-10.8c-0.2,0.3-0.4,0.5-0.8,0.8
		c0.9,0.9,1.8,1.9,2.4,3c-1.1,0.4-2.3,0.8-3.5,1.2c-0.3-1-0.7-2-1.1-3c-0.3,0.1-0.7,0.3-1,0.4c0.4,0.9,0.8,1.9,1.1,2.9
		c-1.3,0.3-2.6,0.6-4,0.7c-0.1-1-0.2-1.9-0.3-2.8c-0.3,0-0.7,0.1-1.1,0.1c0.1,0.9,0.2,1.8,0.3,2.8c-0.7,0.1-1.5,0.1-2.2,0.1
		s-1.5,0-2.2-0.1c0.1-1,0.2-1.9,0.3-2.8c-0.4,0-0.7-0.1-1.1-0.1c-0.1,0.9-0.2,1.8-0.3,2.8c-1.4-0.2-2.7-0.4-4-0.7
		c0.3-1,0.7-1.9,1.1-2.8c-0.4-0.1-0.7-0.2-1-0.4c-0.4,0.9-0.8,1.9-1.1,2.9c-1.2-0.3-2.4-0.7-3.5-1.2c0.6-1.1,1.4-2,2.3-2.9
		c-0.3-0.2-0.6-0.5-0.8-0.7c-2.8,2.7-4.6,6.5-4.6,10.7c0,4,1.6,7.6,4.1,10.3C13.7,37.2,14,37,14.4,36.8z M36.5,33.1
		c-1.2-0.5-2.4-0.9-3.7-1.3c0.3-1.3,0.5-2.7,0.6-4.2h4.5C37.8,29.6,37.3,31.4,36.5,33.1z M36.4,21c0.8,1.7,1.3,3.6,1.4,5.6h-4.5
		c0-1.5-0.3-3-0.6-4.3C34,21.9,35.3,21.5,36.4,21z M31.7,31.5c-1.4-0.3-2.8-0.6-4.3-0.8c0.1-1,0.1-2,0.1-3.1h4.7
		C32.2,29,32,30.3,31.7,31.5z M31.7,22.5c0.3,1.3,0.6,2.7,0.6,4.1h-4.7c0-1.1-0.1-2.2-0.1-3.3C28.9,23.1,30.3,22.8,31.7,22.5z
		 M21.8,23.4c0.8,0.1,1.5,0.1,2.3,0.1s1.5,0,2.3-0.1c0.1,1,0.1,2.1,0.1,3.2h-4.8C21.7,25.5,21.7,24.4,21.8,23.4z M26.5,27.6
		c0,1-0.1,2-0.1,3c-0.8-0.1-1.5-0.1-2.3-0.1s-1.5,0-2.3,0.1c-0.1-1-0.1-2-0.1-3H26.5z M16.5,31.5c-0.3-1.2-0.5-2.5-0.6-3.9h4.7
		c0,1.1,0.1,2.1,0.1,3.1C19.3,30.9,17.8,31.2,16.5,31.5z M16.5,22.5c1.4,0.3,2.8,0.6,4.2,0.8c-0.1,1.1-0.1,2.2-0.1,3.3h-4.7
		C16,25.2,16.2,23.8,16.5,22.5z M11.8,21c1.2,0.5,2.4,0.9,3.7,1.2c-0.4,1.4-0.6,2.8-0.6,4.3h-4.5C10.4,24.6,10.9,22.7,11.8,21z
		 M10.4,27.6h4.5c0,1.4,0.3,2.8,0.6,4.2c-1.3,0.4-2.6,0.8-3.7,1.3C10.9,31.4,10.4,29.6,10.4,27.6z"/>
	<path class="st1" d="M46,31.7l2.2-0.9c-0.5-1.2-1.8-1.7-3-1.2l-1.7,0.7c0-0.3,0.1-0.7,0.1-1c0-0.6,0.1-1.2,0-1.7
		c0.8,0.7,2,0.8,3,0.2l2.1-1.4c-0.8-1.1-2.3-1.4-3.4-0.7l-1.8,1c-0.1-0.9-0.2-1.9-0.4-2.8c0.9,0.5,2,0.4,2.8-0.3l1.6-1.6
		c-0.9-0.9-2.3-0.9-3.2,0L43,23.3c-0.2-0.9-0.5-1.8-0.8-2.6c0.9,0.3,1.9,0,2.5-0.8l1.2-1.8c-1-0.6-2.3-0.4-2.9,0.6l-1,1.5
		c-0.4-0.8-0.8-1.6-1.2-2.3c0.9,0.2,1.8-0.3,2.2-1.1l0.7-1.8c-1-0.4-2.1,0.1-2.5,1l-0.6,1.6c-0.5-0.7-1-1.4-1.5-2
		c0.8,0,1.5-0.5,1.6-1.3l0.3-1.6c-0.9-0.2-1.7,0.4-1.9,1.3l-0.3,1.1c-0.4-0.4-0.8-0.8-1.2-1.2l-0.2,0.2c0.1,0.1,0.8,0.8,1,1
		c0.8,1,1.6,2.1,2.2,3.2c1.3,2.4,2,5.1,2.2,7.9c0.2,4.6-1.4,8.9-4.2,12.4c0.6,0.1,1.2,0.2,1.6,0.2c0.3-0.4,0.6-0.8,0.8-1.3
		c0.2-0.3,0.3-0.5,0.4-0.8c0.3,0.7,1,1.2,1.8,1.2h1.9c0-1.1-0.9-1.9-1.9-1.9h-1.5c0.3-0.7,0.6-1.4,0.9-2.2c0.4,0.8,1.3,1.3,2.3,1.1
		l2.1-0.4c-0.2-1.1-1.3-1.9-2.5-1.6l-1.7,0.3c0.2-0.8,0.4-1.6,0.6-2.5C43.9,31.7,45,32,46,31.7z"/>
	<path class="st3" d="M5.1,42.9C5.7,43,6.4,43,7.1,43c1.8,0,3.7-0.3,5.3-0.9c1.2-0.4,2.4-1,3.6-1.7c0.1,0,0.1-0.1,0.2-0.1
		c0.7-0.4,1.9-1.1,3.3-1.1c0.3,0,0.5,0,0.7,0.1c0.7,0.1,2.2,0.8,3,2.5h1.6c0.8-1.7,2.3-2.4,3-2.5c0.2,0,0.5-0.1,0.7-0.1
		c1.4,0,2.6,0.7,3.3,1.1c0.1,0.1,0.2,0.1,0.2,0.1c1.2,0.7,2.4,1.3,3.6,1.7c2.1,0.7,4.1,0.9,5.3,0.9c0.7,0,1.4,0,2-0.1
		c0.4-0.1,0.8-0.1,1.2-0.2l-2-2.6c0,0-4.3,0.8-9.3-2.3c-5.1-3.1-7.9-1.1-8.9,0c-1.1-1.1-3.9-3.1-8.9,0s-9.3,2.3-9.3,2.3l-2,2.6
		C4.3,42.7,4.7,42.8,5.1,42.9z"/>
	<path class="st1" d="M28.6,39.8c1.5,0,2.8,0.9,3.3,1.2c1.1,0.7,2.4,1.3,3.7,1.7c1.8,0.6,3.8,0.9,5.4,0.9c0.7,0,1.4-0.1,2.1-0.1
		c1.9-0.3,3.4-0.8,3.4-0.8l0.2,0.5c0,0-1.3,0.7-3.4,1.2c-1.1,0.3-2.4,0.4-3.8,0.4c-1.3,0-2.7-0.1-4.1-0.5c-1.4-0.3-2.8-0.8-4.1-1.5
		c-0.2-0.1-1-0.5-1.7-0.7C29.3,42,29,42,28.8,42s-0.4,0-0.5,0.1c-0.7,0.2-1,0.8-1.2,1.3l0.3,1c0.1,0.4-0.1,0.8-0.5,0.8h-5.5
		c-0.4,0-0.6-0.4-0.5-0.8l0.3-1c-0.2-0.5-0.5-1.1-1.2-1.3c-0.2,0-0.3-0.1-0.5-0.1s-0.5,0-0.8,0.1c-0.7,0.2-1.5,0.6-1.7,0.7
		c-1.3,0.6-2.7,1.1-4.1,1.5c-1.4,0.3-2.8,0.5-4.1,0.5c-1.4,0-2.7-0.2-3.8-0.4c-2.1-0.5-3.4-1.2-3.4-1.2l0.2-0.5c0,0,1.5,0.5,3.4,0.8
		c0.6,0.1,1.3,0.1,2.1,0.1c1.7,0,3.6-0.3,5.4-0.9c1.3-0.4,2.6-1,3.7-1.7c0.5-0.3,1.8-1.2,3.3-1.2c0.2,0,0.4,0,0.7,0.1
		c0.6,0.1,2.1,0.7,2.8,2.5h2.2c0.7-1.8,2.2-2.4,2.8-2.5C28.2,39.8,28.4,39.8,28.6,39.8z"/>
</g>
<g>
	<g>
		<path class="st4" d="M71.7,18.3H59.8v6.6h12.3v3h-16V5.6h16v3.2H59.8V15h11.8V18.3z"/>
		<path class="st4" d="M83.6,5.6c6.1,0,11.1,5,11.1,11.2c0,6.2-5,11.2-11.1,11.2h-7.7V5.6H83.6z M83,24.7c4.5,0,8.1-3.6,8.1-8
			c0-4.4-3.6-8-8.1-8h-3.6v16H83z"/>
		<path class="st4" d="M115.6,19.9c0,5.2-4.2,8.3-8.8,8.3c-4.7,0-8.9-3.1-8.9-8.3V5.6h3.6v14.4c0,3.2,2.4,4.9,5.2,4.9
			c2.8,0,5.2-1.7,5.2-4.9V5.6h3.6V19.9z"/>
		<path class="st4" d="M136.7,26.7c-1.8,1-3.7,1.5-5.7,1.5c-6.6,0-11.9-5.1-11.9-11.5c0-6.4,5.3-11.5,11.9-11.5c2,0,3.9,0.5,5.7,1.5
			v3.6c-1.8-1.1-3.8-1.7-5.7-1.7c-4.6,0-8.3,3.7-8.3,8.1c0,4.5,3.7,8.1,8.3,8.1c1.9,0,3.9-0.6,5.7-1.7V26.7z"/>
		<path class="st4" d="M154,22.7h-8.7l-2,5.3h-3.9L148,5.6h3.5l8.4,22.4H156L154,22.7z M149.7,10.4l-3.5,9.4h6.9L149.7,10.4z"/>
		<path class="st4" d="M175.5,8.8h-6.3v19.2h-3.6V8.8h-6.3V5.6h16.1V8.8z"/>
		<path class="st4" d="M179,27.9V5.6h3.6v22.4H179z"/>
		<path class="st4" d="M209.7,16.8c0,6.3-5.2,11.5-11.7,11.5c-6.6,0-11.9-5.1-11.9-11.5c0-6.4,5.3-11.5,11.9-11.5
			C204.5,5.3,209.7,10.4,209.7,16.8z M189.8,16.8c0,4.5,3.7,8.1,8.3,8.1c4.5,0,8.1-3.6,8.1-8.1c0-4.5-3.6-8.1-8.1-8.1
			C193.5,8.7,189.8,12.3,189.8,16.8z"/>
		<path class="st4" d="M227.4,5.6h3.6v22.4h-2.8l-11.3-16v16h-3.6V5.6h2.8l11.3,15.9V5.6z"/>
	</g>
	<g>
		<path class="st4" d="M106.9,40.6h-3.2v-1h3.2V40.6z"/>
		<path class="st4" d="M112,40.8c0.8,0.8,2,1.2,2.9,1.2c0.8,0,1.7-0.3,1.7-1.2c0-0.5-0.5-0.8-1.2-1c-1.4-0.5-3.5-0.6-3.5-2.5
			c0-1.6,1.5-2.3,2.9-2.3c0.9,0,2,0.3,2.7,1v1.3c-0.7-0.8-1.8-1.1-2.7-1.1c-0.8,0-1.7,0.3-1.7,1.2c0,0.7,0.8,0.9,1.7,1.1
			c1.4,0.3,3,0.7,3,2.4c0,1.6-1.6,2.3-3,2.3c-1,0-2.1-0.3-2.9-1V40.8z"/>
		<path class="st4" d="M124.5,36.2h-2.2V43H121v-6.8h-2.2V35h5.8V36.2z"/>
		<path class="st4" d="M132.1,40.2c0,1.9-1.5,3-3.1,3c-1.7,0-3.2-1.1-3.2-3V35h1.3v5.1c0,1.2,0.9,1.8,1.9,1.8c1,0,1.9-0.6,1.9-1.8
			V35h1.3V40.2z"/>
		<path class="st4" d="M136.4,35c2.2,0,4,1.8,4,4c0,2.2-1.8,4-4,4h-2.8v-8H136.4z M136.2,41.9c1.6,0,2.9-1.3,2.9-2.9
			c0-1.6-1.3-2.9-2.9-2.9h-1.3v5.7H136.2z"/>
		<path class="st4" d="M142.1,35l1.9,4.3l2-4.3h1.4l-2.8,5.6V43h-1.3v-2.3l-2.7-5.7H142.1z"/>
		<path class="st4" d="M157.3,43h-5.5v-8h1.3v6.9h4.2V43z"/>
		<path class="st4" d="M158.5,43v-8h1.3v8H158.5z"/>
		<path class="st4" d="M166.4,35h1.3v8h-1l-4-5.7V43h-1.3v-8h1l4,5.7V35z"/>
		<path class="st4" d="M173.8,35h1.7l-2.8,3.1l3.1,4.9h-1.5l-2.5-4l-1.3,1.3V43h-1.3v-8h1.3v3.6L173.8,35z"/>
		<path class="st4" d="M183.5,40.6h-3.2v-1h3.2V40.6z"/>
	</g>
</g>
</svg>
